<?xml version="1.0" encoding="utf-8"?>
<!-- Generator: Adobe Illustrator 24.3.0, SVG Export Plug-In . SVG Version: 6.00 Build 0)  -->
<svg version="1.1" id="Layer_1" xmlns="http://www.w3.org/2000/svg" xmlns:xlink="http://www.w3.org/1999/xlink" x="0px" y="0px"
	 viewBox="0 0 500 500" style="enable-background:new 0 0 500 500;" xml:space="preserve">
<style type="text/css">
	.st0{fill:#FFFFFF;}
	.st1{fill:#F9F9FA;}
</style>
<rect y="198.59" class="st0" width="500" height="70.86"/>
<g>
	<path class="st1" d="M357.82,223.66c-1.7-2.99-4.1-5.33-7.21-7.04c-2.82-1.55-6.1-2.38-9.85-2.53v6.91
		c3.42,0.21,6.05,1.38,7.87,3.51c2.02,2.37,3.97,5.58,3.97,9.53c0,3.85-1.24,7.47-3.24,9.91c-1.8,2.2-5.13,3.62-8.6,3.83v6.17
		c3.72-0.14,6.99-0.97,9.81-2.51c3.11-1.69,5.52-4.04,7.23-7.04c1.71-3,2.57-6.47,2.57-10.42
		C360.36,230.09,359.51,226.65,357.82,223.66z"/>
	<path class="st1" d="M334.19,243.12c-1.7-2.28-2.56-5.33-2.56-9.14c0-2.46,0.36-4.63,1.08-6.5c0.72-1.87,1.82-3.34,3.31-4.4
		c1.27-0.91,2.86-1.41,4.73-1.54v-6.65c-3.08,0.13-5.81,0.92-8.17,2.37c-2.6,1.6-4.62,3.84-6.06,6.72
		c-1.44,2.88-2.16,6.21-2.16,9.99c0,3.76,0.7,7.08,2.11,9.96c1.41,2.88,3.41,5.14,6.01,6.77c2.37,1.49,5.13,2.29,8.27,2.42v-6.63
		C337.92,246.31,335.73,245.19,334.19,243.12z"/>
	<path class="st1" d="M327.35,218.03c0,0-2.66,1.06-5.72,6.78c0,0-3.26,6.63-0.89,14.75c0,0,1.4,6.1,6.62,10.23l0.19,0.21
		l-0.14-7.03l-0.05-18.86V218.03z"/>
</g>
<g>
	<path class="st1" d="M440.14,250.56c-3.56,0-6.58-0.79-9.07-2.38c-2.49-1.59-4.39-3.76-5.71-6.53s-1.99-5.91-2.01-9.42
		c0.02-3.58,0.71-6.75,2.06-9.5c1.35-2.75,3.28-4.92,5.79-6.48c2.51-1.56,5.52-2.35,9.04-2.35c3.79,0,7.04,0.94,9.73,2.83
		s4.46,4.47,5.32,7.75l-6.69,1.93c-0.66-1.95-1.75-3.47-3.26-4.55c-1.51-1.08-3.24-1.62-5.19-1.62c-2.21,0-4.02,0.52-5.43,1.56
		c-1.42,1.04-2.46,2.46-3.15,4.26c-0.69,1.8-1.04,3.86-1.06,6.17c0.02,3.58,0.84,6.47,2.46,8.68c1.62,2.21,4.02,3.31,7.19,3.31
		c2.17,0,3.92-0.5,5.26-1.5c1.34-1,2.36-2.43,3.07-4.29l6.82,1.61c-1.14,3.39-3.01,5.99-5.63,7.8
		C447.04,249.66,443.87,250.56,440.14,250.56z"/>
	<path class="st1" d="M426.32,217.85c0,0-2.7,0.96-5.81,6.1c0,0-3.31,5.97-0.91,13.27c0,0,1.42,5.49,6.71,9.2l0.2,0.19l-0.15-6.32
		l-0.05-16.96V217.85z"/>
</g>
<path class="st1" d="M5.57,249.66l11.71-17.62L5.91,214.81h8.08l7.41,11.62l7.31-11.62h8.13l-11.37,17.23l11.66,17.62h-8.08
	l-7.65-12l-7.7,12H5.57z"/>
<path class="st1" d="M53.2,250.38c-2.58,0-4.91-0.46-6.98-1.37c-2.07-0.91-3.78-2.22-5.11-3.92c-1.33-1.7-2.17-3.73-2.53-6.09
	l6.87-1.02c0.48,2,1.48,3.54,3,4.62c1.52,1.08,3.24,1.62,5.18,1.62c1.08,0,2.13-0.17,3.15-0.51c1.02-0.34,1.85-0.84,2.5-1.5
	c0.65-0.66,0.98-1.48,0.98-2.44c0-0.35-0.05-0.7-0.16-1.03c-0.11-0.33-0.28-0.64-0.52-0.93S59,237.26,58.56,237
	c-0.44-0.26-1-0.49-1.68-0.7l-9.05-2.66c-0.68-0.19-1.46-0.47-2.36-0.82c-0.9-0.35-1.76-0.86-2.6-1.52
	c-0.84-0.66-1.54-1.54-2.09-2.63c-0.56-1.09-0.83-2.46-0.83-4.13c0-2.34,0.59-4.28,1.77-5.83s2.75-2.7,4.72-3.46
	c1.97-0.76,4.15-1.13,6.53-1.11c2.4,0.03,4.55,0.44,6.44,1.23c1.89,0.79,3.47,1.94,4.74,3.45c1.27,1.51,2.19,3.35,2.76,5.53
	l-7.11,1.21c-0.26-1.13-0.73-2.08-1.43-2.86c-0.69-0.77-1.52-1.36-2.48-1.77c-0.96-0.4-1.96-0.62-3.01-0.65
	c-1.03-0.03-2,0.11-2.92,0.42c-0.91,0.31-1.65,0.77-2.23,1.37c-0.57,0.6-0.86,1.31-0.86,2.13c0,0.76,0.23,1.38,0.7,1.85
	c0.47,0.48,1.06,0.86,1.77,1.15c0.71,0.29,1.44,0.53,2.18,0.73l6.05,1.65c0.9,0.24,1.9,0.56,3,0.96c1.1,0.4,2.15,0.94,3.16,1.65
	c1.01,0.7,1.84,1.63,2.49,2.77c0.65,1.15,0.98,2.6,0.98,4.36c0,1.87-0.39,3.51-1.17,4.9c-0.78,1.4-1.84,2.55-3.16,3.46
	c-1.32,0.91-2.82,1.59-4.49,2.04C56.69,250.16,54.97,250.38,53.2,250.38z"/>
<path class="st1" d="M80.59,249.66v-28.7H69.6v-6.15h28.56v6.15H87.17v28.7H80.59z"/>
<path class="st1" d="M102.03,249.66v-34.85h14.71c0.34,0,0.79,0.01,1.37,0.04c0.57,0.02,1.08,0.08,1.54,0.16
	c2.08,0.32,3.79,1.01,5.12,2.06c1.33,1.05,2.31,2.37,2.94,3.96c0.63,1.59,0.94,3.36,0.94,5.31c0,2.92-0.73,5.42-2.18,7.49
	c-1.45,2.07-3.73,3.35-6.82,3.84l-2.9,0.19h-8.13v11.81H102.03z M108.61,231.7h7.84c0.34,0,0.71-0.02,1.11-0.05
	c0.4-0.03,0.77-0.1,1.11-0.19c0.89-0.24,1.57-0.65,2.06-1.22c0.48-0.57,0.82-1.21,1-1.91c0.19-0.7,0.28-1.37,0.28-2
	c0-0.63-0.09-1.29-0.28-2c-0.19-0.7-0.52-1.34-1-1.91c-0.48-0.57-1.17-0.98-2.06-1.22c-0.34-0.1-0.71-0.16-1.11-0.19
	c-0.4-0.03-0.77-0.05-1.11-0.05h-7.84V231.7z M121.68,249.66l-6.87-14.18l6.78-1.31l7.55,15.49H121.68z"/>
<path class="st1" d="M134.46,249.66v-34.85h22.75v6.15h-16.17v7.45h13.26v6.15h-13.26v8.95h16.17v6.15H134.46z"/>
<path class="st1" d="M160.59,249.66l10.65-34.85h9.82l10.65,34.85h-6.78l-9.49-30.73h1.26l-9.34,30.73H160.59z M166.98,242.4v-6.15
	h18.39v6.15H166.98z"/>
<path class="st1" d="M196.07,249.66v-34.85h5.9l11.52,23.13l11.52-23.13h5.91v34.85h-6.15v-20.81l-10.11,20.81h-2.32l-10.12-20.81
	v20.81H196.07z"/>
<path class="st1" d="M247.85,249.66v-34.85h6.58v34.85H247.85z"/>
<path class="st1" d="M261.69,249.66v-34.85h6.68l15.15,23.23v-23.23h6.68v34.85h-6.68l-15.15-23.23v23.23H261.69z"/>
<path class="st1" d="M296.98,249.66v-34.85h21.3v6.58h-14.71v7.55h11.81v6.58h-11.81v14.13H296.98z"/>
<path class="st1" d="M372.95,249.66v-28.7h-10.99v-6.15h28.56v6.15h-10.99v28.7H372.95z"/>
<path class="st1" d="M394.39,249.66v-34.85h22.75v6.15h-16.16v7.45h13.26v6.15h-13.26v8.95h16.16v6.15H394.39z"/>
<path class="st1" d="M466.54,249.66v-34.85h6.58v14.33h15.58v-14.33h6.58v34.85h-6.58v-14.37h-15.58v14.37H466.54z"/>
</svg>
